<?xml version="1.0" encoding="utf-8"?>
<!-- Generator: Adobe Illustrator 16.0.0, SVG Export Plug-In . SVG Version: 6.00 Build 0)  -->
<!DOCTYPE svg PUBLIC "-//W3C//DTD SVG 1.1//EN" "http://www.w3.org/Graphics/SVG/1.1/DTD/svg11.dtd">
<svg version="1.1" id="Layer_1" xmlns="http://www.w3.org/2000/svg" xmlns:xlink="http://www.w3.org/1999/xlink" x="0px" y="0px"
	 width="169.218px" height="67.771px" viewBox="0 0 169.218 67.771" enable-background="new 0 0 169.218 67.771"
	 xml:space="preserve">
<g>
	<path d="M49.763,38.06c-1.087,4.134-3.768,7.842-7.779,10.116c-7.893,4.472-17.917,1.7-22.389-6.19
		c-2.21-3.901-2.645-8.321-1.572-12.336l16.619,8.045l0.065,0.117l19.847-11.246l0,0l1.862-1.055
		c-0.44-1.184-0.952-2.352-1.595-3.484C48.271,10.463,33.586,6.4,22.024,12.954C10.46,19.502,6.398,34.188,12.95,45.747
		c6.551,11.563,21.235,15.626,32.797,9.075c7.954-4.507,12.358-12.859,12.201-21.399L49.763,38.06z M25.788,19.596
		c6.747-3.822,15.04-2.336,20.102,3.103l-11.381,6.445l-12.844-6.218C22.823,21.637,24.196,20.5,25.788,19.596z"/>
	<g>
		<g>
			<path d="M59.175,49.878c0-1.424,0.279-2.704,0.839-3.841s1.338-2.015,2.336-2.632c0.999-0.618,2.137-0.927,3.417-0.927
				c1.979,0,3.579,0.685,4.801,2.055c1.222,1.369,1.833,3.191,1.833,5.465v0.175c0,1.415-0.271,2.684-0.813,3.807
				c-0.542,1.124-1.316,1.999-2.323,2.625c-1.007,0.627-2.164,0.94-3.471,0.94c-1.969,0-3.565-0.685-4.787-2.055
				c-1.222-1.369-1.833-3.183-1.833-5.438V49.878z M61.672,50.173c0,1.611,0.374,2.905,1.121,3.881s1.748,1.464,3.001,1.464
				c1.262,0,2.265-0.495,3.008-1.484c0.743-0.988,1.114-2.374,1.114-4.155c0-1.594-0.378-2.885-1.135-3.874
				s-1.761-1.484-3.015-1.484c-1.227,0-2.215,0.488-2.967,1.464S61.672,48.355,61.672,50.173z"/>
			<path d="M77.867,42.747l0.081,1.826c1.11-1.396,2.56-2.095,4.351-2.095c3.07,0,4.619,1.732,4.646,5.197v9.601H84.46v-9.614
				c-0.009-1.048-0.249-1.822-0.719-2.323c-0.47-0.501-1.202-0.752-2.195-0.752c-0.806,0-1.513,0.215-2.122,0.645
				c-0.609,0.43-1.083,0.993-1.423,1.692v10.353h-2.484V42.747H77.867z"/>
			<path d="M99.15,53.423c0-0.672-0.253-1.193-0.759-1.564c-0.506-0.372-1.387-0.691-2.645-0.96s-2.256-0.591-2.995-0.967
				c-0.738-0.376-1.284-0.824-1.638-1.343c-0.354-0.52-0.531-1.138-0.531-1.854c0-1.19,0.504-2.197,1.512-3.021
				c1.006-0.823,2.293-1.235,3.859-1.235c1.647,0,2.984,0.426,4.009,1.275c1.024,0.851,1.538,1.938,1.538,3.264h-2.498
				c0-0.681-0.289-1.267-0.866-1.76c-0.577-0.492-1.305-0.738-2.183-0.738c-0.904,0-1.611,0.197-2.121,0.591
				c-0.51,0.395-0.766,0.909-0.766,1.544c0,0.601,0.237,1.053,0.712,1.356c0.475,0.305,1.331,0.596,2.571,0.873
				s2.245,0.609,3.016,0.994c0.77,0.385,1.34,0.848,1.711,1.39c0.371,0.541,0.558,1.201,0.558,1.98c0,1.298-0.519,2.339-1.558,3.122
				s-2.386,1.175-4.042,1.175c-1.163,0-2.193-0.206-3.089-0.618c-0.895-0.411-1.596-0.986-2.102-1.725
				c-0.506-0.739-0.758-1.538-0.758-2.397h2.484c0.045,0.833,0.377,1.493,1,1.98c0.622,0.488,1.443,0.732,2.464,0.732
				c0.94,0,1.694-0.19,2.263-0.571C98.866,54.566,99.15,54.059,99.15,53.423z"/>
			<path d="M113.84,55.84c-0.967,1.137-2.386,1.705-4.256,1.705c-1.549,0-2.729-0.45-3.539-1.35s-1.22-2.231-1.229-3.995v-9.453
				h2.484v9.387c0,2.202,0.895,3.303,2.686,3.303c1.897,0,3.16-0.707,3.787-2.121V42.747h2.484v14.529h-2.363L113.84,55.84z"/>
			<path d="M122.73,57.276h-2.484V36.651h2.484V57.276z"/>
			<path d="M130.075,39.229v3.518h2.713v1.92h-2.713v9.022c0,0.582,0.121,1.02,0.363,1.311c0.241,0.291,0.652,0.437,1.234,0.437
				c0.287,0,0.681-0.054,1.182-0.161v2.003c-0.652,0.178-1.289,0.267-1.906,0.267c-1.109,0-1.947-0.336-2.511-1.007
				c-0.563-0.672-0.847-1.625-0.847-2.86v-9.011h-2.645v-1.92h2.645v-3.518H130.075z"/>
			<path d="M135.702,38.894c0-0.403,0.123-0.743,0.369-1.021s0.611-0.416,1.094-0.416c0.484,0,0.852,0.139,1.102,0.416
				s0.376,0.617,0.376,1.021c0,0.402-0.126,0.738-0.376,1.007s-0.617,0.403-1.102,0.403c-0.482,0-0.848-0.135-1.094-0.403
				S135.702,39.296,135.702,38.894z M138.387,57.276h-2.484V42.747h2.484V57.276z"/>
			<path d="M144.711,42.747l0.081,1.826c1.11-1.396,2.56-2.095,4.351-2.095c3.07,0,4.619,1.732,4.646,5.197v9.601h-2.484v-9.614
				c-0.01-1.048-0.248-1.822-0.719-2.323c-0.47-0.501-1.201-0.752-2.195-0.752c-0.806,0-1.514,0.215-2.121,0.645
				c-0.609,0.43-1.084,0.993-1.424,1.692v10.353h-2.484V42.747H144.711z"/>
			<path d="M156.945,49.891c0-2.265,0.524-4.066,1.571-5.404s2.435-2.008,4.162-2.008c1.773,0,3.156,0.627,4.15,1.88l0.12-1.611
				h2.27v14.18c0,1.881-0.558,3.362-1.672,4.445s-2.612,1.625-4.491,1.625c-1.048,0-2.073-0.225-3.076-0.672
				c-1.002-0.447-1.768-1.061-2.295-1.84l1.289-1.49c1.064,1.316,2.367,1.974,3.906,1.974c1.209,0,2.151-0.34,2.827-1.021
				c0.676-0.68,1.015-1.638,1.015-2.873v-1.249c-0.994,1.146-2.351,1.719-4.069,1.719c-1.701,0-3.077-0.685-4.13-2.055
				C157.471,54.121,156.945,52.254,156.945,49.891z M159.442,50.173c0,1.639,0.336,2.926,1.008,3.86
				c0.672,0.936,1.611,1.403,2.82,1.403c1.566,0,2.717-0.712,3.451-2.135v-6.634c-0.762-1.388-1.903-2.081-3.425-2.081
				c-1.208,0-2.153,0.47-2.833,1.41C159.783,46.937,159.442,48.329,159.442,50.173z"/>
		</g>
	</g>
	<path fill="#3E813D" d="M50.265,54.621c-4.506,3.563-10.188,5.707-16.379,5.707c-14.604,0-26.441-11.84-26.441-26.442
		c0-14.604,11.838-26.442,26.441-26.442c6.191,0,11.873,2.145,16.379,5.707l5.303-5.302C49.722,2.977,42.21,0.031,34.005,0
		C15.292-0.066,0.067,15.053,0,33.765c-0.068,18.717,15.051,33.939,33.765,34.007c8.292,0.031,15.891-2.932,21.797-7.855
		L50.265,54.621z"/>
</g>
</svg>
